<mxfile host="app.diagrams.net" modified="2021-04-29T03:16:11.326Z" agent="5.0 (Macintosh; Intel Mac OS X 10_15_7) AppleWebKit/537.36 (KHTML, like Gecko) Chrome/90.0.4430.85 Safari/537.36" etag="fHDF3kF0SVyRwjIH12_6" version="14.6.2" type="github">
  <diagram id="R2lEEEUBdFMjLlhIrx00" name="Page-1">
    <mxGraphModel dx="2865" dy="1129" grid="1" gridSize="10" guides="1" tooltips="1" connect="1" arrows="1" fold="1" page="1" pageScale="1" pageWidth="850" pageHeight="1100" background="#F4F1DE" math="0" shadow="0" extFonts="Permanent Marker^https://fonts.googleapis.com/css?family=Permanent+Marker">
      <root>
        <mxCell id="0" />
        <mxCell id="1" parent="0" />
        <mxCell id="vd03xVS5bojGmrGEz5Pu-22" style="edgeStyle=orthogonalEdgeStyle;rounded=0;orthogonalLoop=1;jettySize=auto;html=1;" parent="1" source="vd03xVS5bojGmrGEz5Pu-12" target="vd03xVS5bojGmrGEz5Pu-21" edge="1">
          <mxGeometry relative="1" as="geometry">
            <Array as="points">
              <mxPoint x="690" y="240" />
              <mxPoint x="690" y="995" />
            </Array>
          </mxGeometry>
        </mxCell>
        <mxCell id="vd03xVS5bojGmrGEz5Pu-23" value="不通过" style="edgeLabel;html=1;align=center;verticalAlign=middle;resizable=0;points=[];" parent="vd03xVS5bojGmrGEz5Pu-22" vertex="1" connectable="0">
          <mxGeometry x="-0.8937" y="3" relative="1" as="geometry">
            <mxPoint as="offset" />
          </mxGeometry>
        </mxCell>
        <mxCell id="vd03xVS5bojGmrGEz5Pu-25" value="" style="edgeStyle=orthogonalEdgeStyle;rounded=0;orthogonalLoop=1;jettySize=auto;html=1;" parent="1" source="vd03xVS5bojGmrGEz5Pu-12" target="vd03xVS5bojGmrGEz5Pu-24" edge="1">
          <mxGeometry relative="1" as="geometry" />
        </mxCell>
        <mxCell id="p_OuVDJv_T010jcNFLhV-15" value="通过" style="edgeLabel;html=1;align=center;verticalAlign=middle;resizable=0;points=[];" vertex="1" connectable="0" parent="vd03xVS5bojGmrGEz5Pu-25">
          <mxGeometry x="-0.2571" y="-2" relative="1" as="geometry">
            <mxPoint as="offset" />
          </mxGeometry>
        </mxCell>
        <mxCell id="vd03xVS5bojGmrGEz5Pu-12" value="0.参数检查" style="rhombus;whiteSpace=wrap;html=1;" parent="1" vertex="1">
          <mxGeometry x="247.5" y="200" width="235" height="80" as="geometry" />
        </mxCell>
        <mxCell id="vd03xVS5bojGmrGEz5Pu-36" style="edgeStyle=orthogonalEdgeStyle;rounded=0;orthogonalLoop=1;jettySize=auto;html=1;entryX=0;entryY=0.5;entryDx=0;entryDy=0;entryPerimeter=0;" parent="1" source="vd03xVS5bojGmrGEz5Pu-13" target="vd03xVS5bojGmrGEz5Pu-21" edge="1">
          <mxGeometry relative="1" as="geometry">
            <Array as="points">
              <mxPoint x="-170" y="995" />
            </Array>
          </mxGeometry>
        </mxCell>
        <mxCell id="vd03xVS5bojGmrGEz5Pu-13" value="3.审核通过" style="rounded=0;whiteSpace=wrap;html=1;" parent="1" vertex="1">
          <mxGeometry x="-230" y="860" width="120" height="60" as="geometry" />
        </mxCell>
        <mxCell id="vd03xVS5bojGmrGEz5Pu-20" value="" style="edgeStyle=orthogonalEdgeStyle;rounded=0;orthogonalLoop=1;jettySize=auto;html=1;" parent="1" source="vd03xVS5bojGmrGEz5Pu-14" target="vd03xVS5bojGmrGEz5Pu-13" edge="1">
          <mxGeometry relative="1" as="geometry" />
        </mxCell>
        <mxCell id="vd03xVS5bojGmrGEz5Pu-39" value="是" style="edgeLabel;html=1;align=center;verticalAlign=middle;resizable=0;points=[];" parent="vd03xVS5bojGmrGEz5Pu-20" vertex="1" connectable="0">
          <mxGeometry x="-0.1281" y="1" relative="1" as="geometry">
            <mxPoint as="offset" />
          </mxGeometry>
        </mxCell>
        <mxCell id="vd03xVS5bojGmrGEz5Pu-28" style="edgeStyle=orthogonalEdgeStyle;rounded=0;orthogonalLoop=1;jettySize=auto;html=1;" parent="1" source="vd03xVS5bojGmrGEz5Pu-14" target="vd03xVS5bojGmrGEz5Pu-21" edge="1">
          <mxGeometry relative="1" as="geometry">
            <Array as="points">
              <mxPoint x="540" y="510" />
              <mxPoint x="540" y="995" />
            </Array>
          </mxGeometry>
        </mxCell>
        <mxCell id="vd03xVS5bojGmrGEz5Pu-38" value="否" style="edgeLabel;html=1;align=center;verticalAlign=middle;resizable=0;points=[];" parent="vd03xVS5bojGmrGEz5Pu-28" vertex="1" connectable="0">
          <mxGeometry x="-0.2579" y="-3" relative="1" as="geometry">
            <mxPoint as="offset" />
          </mxGeometry>
        </mxCell>
        <mxCell id="vd03xVS5bojGmrGEz5Pu-14" value="2.是否是自动审核？" style="rhombus;whiteSpace=wrap;html=1;" parent="1" vertex="1">
          <mxGeometry x="248.75" y="470" width="232.5" height="80" as="geometry" />
        </mxCell>
        <mxCell id="vd03xVS5bojGmrGEz5Pu-35" style="edgeStyle=orthogonalEdgeStyle;rounded=0;orthogonalLoop=1;jettySize=auto;html=1;entryX=0.5;entryY=0;entryDx=0;entryDy=0;entryPerimeter=0;" parent="1" source="vd03xVS5bojGmrGEz5Pu-16" target="vd03xVS5bojGmrGEz5Pu-21" edge="1">
          <mxGeometry relative="1" as="geometry" />
        </mxCell>
        <mxCell id="vd03xVS5bojGmrGEz5Pu-16" value="4.审核驳回" style="rounded=0;whiteSpace=wrap;html=1;" parent="1" vertex="1">
          <mxGeometry x="295" y="810" width="120" height="60" as="geometry" />
        </mxCell>
        <mxCell id="vd03xVS5bojGmrGEz5Pu-18" value="" style="edgeStyle=orthogonalEdgeStyle;rounded=0;orthogonalLoop=1;jettySize=auto;html=1;" parent="1" source="vd03xVS5bojGmrGEz5Pu-17" target="vd03xVS5bojGmrGEz5Pu-12" edge="1">
          <mxGeometry relative="1" as="geometry" />
        </mxCell>
        <mxCell id="vd03xVS5bojGmrGEz5Pu-17" value="发起变更" style="strokeWidth=2;html=1;shape=mxgraph.flowchart.terminator;whiteSpace=wrap;fillColor=#f5f5f5;strokeColor=#666666;fontColor=#333333;" parent="1" vertex="1">
          <mxGeometry x="315" y="80" width="100" height="50" as="geometry" />
        </mxCell>
        <mxCell id="vd03xVS5bojGmrGEz5Pu-21" value="结束" style="strokeWidth=2;html=1;shape=mxgraph.flowchart.terminator;whiteSpace=wrap;fillColor=#fff2cc;strokeColor=#d6b656;" parent="1" vertex="1">
          <mxGeometry x="305" y="970" width="100" height="50" as="geometry" />
        </mxCell>
        <mxCell id="vd03xVS5bojGmrGEz5Pu-26" value="" style="edgeStyle=orthogonalEdgeStyle;rounded=0;orthogonalLoop=1;jettySize=auto;html=1;" parent="1" source="vd03xVS5bojGmrGEz5Pu-24" target="vd03xVS5bojGmrGEz5Pu-14" edge="1">
          <mxGeometry relative="1" as="geometry" />
        </mxCell>
        <mxCell id="vd03xVS5bojGmrGEz5Pu-24" value="1.保存数据" style="rounded=0;whiteSpace=wrap;html=1;" parent="1" vertex="1">
          <mxGeometry x="305" y="350" width="120" height="60" as="geometry" />
        </mxCell>
        <mxCell id="vd03xVS5bojGmrGEz5Pu-37" style="edgeStyle=orthogonalEdgeStyle;rounded=0;orthogonalLoop=1;jettySize=auto;html=1;entryX=0.5;entryY=0;entryDx=0;entryDy=0;" parent="1" source="vd03xVS5bojGmrGEz5Pu-27" target="vd03xVS5bojGmrGEz5Pu-30" edge="1">
          <mxGeometry relative="1" as="geometry" />
        </mxCell>
        <mxCell id="vd03xVS5bojGmrGEz5Pu-27" value="后台审核&lt;br&gt;OA审核" style="strokeWidth=2;html=1;shape=mxgraph.flowchart.terminator;whiteSpace=wrap;fillColor=#f5f5f5;strokeColor=#666666;fontColor=#333333;" parent="1" vertex="1">
          <mxGeometry x="23.120000000000005" y="528" width="100" height="45" as="geometry" />
        </mxCell>
        <mxCell id="vd03xVS5bojGmrGEz5Pu-31" style="edgeStyle=orthogonalEdgeStyle;rounded=0;orthogonalLoop=1;jettySize=auto;html=1;exitX=1;exitY=0.5;exitDx=0;exitDy=0;" parent="1" source="vd03xVS5bojGmrGEz5Pu-30" target="vd03xVS5bojGmrGEz5Pu-16" edge="1">
          <mxGeometry relative="1" as="geometry" />
        </mxCell>
        <mxCell id="vd03xVS5bojGmrGEz5Pu-32" value="驳回" style="edgeLabel;html=1;align=center;verticalAlign=middle;resizable=0;points=[];" parent="vd03xVS5bojGmrGEz5Pu-31" vertex="1" connectable="0">
          <mxGeometry x="-0.2837" y="3" relative="1" as="geometry">
            <mxPoint as="offset" />
          </mxGeometry>
        </mxCell>
        <mxCell id="vd03xVS5bojGmrGEz5Pu-30" value="审核" style="rhombus;whiteSpace=wrap;html=1;" parent="1" vertex="1">
          <mxGeometry x="-40" y="630" width="226.25" height="80" as="geometry" />
        </mxCell>
        <mxCell id="p_OuVDJv_T010jcNFLhV-5" value="" style="edgeStyle=orthogonalEdgeStyle;rounded=0;orthogonalLoop=1;jettySize=auto;html=1;" edge="1" parent="1" source="p_OuVDJv_T010jcNFLhV-4" target="vd03xVS5bojGmrGEz5Pu-13">
          <mxGeometry relative="1" as="geometry" />
        </mxCell>
        <mxCell id="p_OuVDJv_T010jcNFLhV-6" value="否" style="edgeLabel;html=1;align=center;verticalAlign=middle;resizable=0;points=[];" vertex="1" connectable="0" parent="p_OuVDJv_T010jcNFLhV-5">
          <mxGeometry x="-0.267" y="-1" relative="1" as="geometry">
            <mxPoint as="offset" />
          </mxGeometry>
        </mxCell>
        <mxCell id="p_OuVDJv_T010jcNFLhV-4" value="5.是否新增审核？" style="rhombus;whiteSpace=wrap;html=1;" vertex="1" parent="1">
          <mxGeometry x="-283.13" y="730" width="226.25" height="80" as="geometry" />
        </mxCell>
        <mxCell id="p_OuVDJv_T010jcNFLhV-7" value="" style="edgeStyle=orthogonalEdgeStyle;rounded=0;orthogonalLoop=1;jettySize=auto;html=1;exitX=0;exitY=0.5;exitDx=0;exitDy=0;endArrow=none;" edge="1" parent="1" source="vd03xVS5bojGmrGEz5Pu-30" target="p_OuVDJv_T010jcNFLhV-4">
          <mxGeometry relative="1" as="geometry">
            <mxPoint x="-40" y="670" as="sourcePoint" />
            <mxPoint x="-170" y="930" as="targetPoint" />
          </mxGeometry>
        </mxCell>
        <mxCell id="p_OuVDJv_T010jcNFLhV-8" value="通过" style="edgeLabel;html=1;align=center;verticalAlign=middle;resizable=0;points=[];" vertex="1" connectable="0" parent="p_OuVDJv_T010jcNFLhV-7">
          <mxGeometry x="-0.4849" y="2" relative="1" as="geometry">
            <mxPoint as="offset" />
          </mxGeometry>
        </mxCell>
        <mxCell id="p_OuVDJv_T010jcNFLhV-13" style="edgeStyle=orthogonalEdgeStyle;rounded=0;orthogonalLoop=1;jettySize=auto;html=1;exitX=1;exitY=0.5;exitDx=0;exitDy=0;entryX=0;entryY=0.5;entryDx=0;entryDy=0;" edge="1" parent="1" source="p_OuVDJv_T010jcNFLhV-10" target="vd03xVS5bojGmrGEz5Pu-13">
          <mxGeometry relative="1" as="geometry" />
        </mxCell>
        <mxCell id="p_OuVDJv_T010jcNFLhV-10" value="修改变更数据" style="rounded=0;whiteSpace=wrap;html=1;" vertex="1" parent="1">
          <mxGeometry x="-390" y="860" width="110" height="60" as="geometry" />
        </mxCell>
        <mxCell id="p_OuVDJv_T010jcNFLhV-11" value="" style="edgeStyle=orthogonalEdgeStyle;rounded=0;orthogonalLoop=1;jettySize=auto;html=1;exitX=0;exitY=0.5;exitDx=0;exitDy=0;startArrow=none;endArrow=none;" edge="1" parent="1" source="p_OuVDJv_T010jcNFLhV-4" target="p_OuVDJv_T010jcNFLhV-10">
          <mxGeometry relative="1" as="geometry">
            <mxPoint x="-283.1300000000001" y="770" as="sourcePoint" />
            <mxPoint x="-230" y="960" as="targetPoint" />
            <Array as="points" />
          </mxGeometry>
        </mxCell>
        <mxCell id="p_OuVDJv_T010jcNFLhV-12" value="是" style="edgeLabel;html=1;align=center;verticalAlign=middle;resizable=0;points=[];" vertex="1" connectable="0" parent="p_OuVDJv_T010jcNFLhV-11">
          <mxGeometry x="-0.1313" y="2" relative="1" as="geometry">
            <mxPoint as="offset" />
          </mxGeometry>
        </mxCell>
        <mxCell id="p_OuVDJv_T010jcNFLhV-14" value="&lt;div&gt;0.参数检查&lt;/div&gt;&lt;div&gt;&lt;span&gt;&lt;/span&gt;&amp;nbsp; &amp;nbsp;当前源数据是否可以变更&lt;/div&gt;&lt;div&gt;&lt;br&gt;&lt;/div&gt;&lt;div&gt;1.保存数据&amp;nbsp;&lt;/div&gt;&lt;div&gt;&lt;span&gt;&lt;/span&gt;&amp;nbsp; &amp;nbsp;保存变更数据&lt;/div&gt;&lt;div&gt;&lt;span&gt;&lt;/span&gt;&amp;nbsp; &amp;nbsp;修改源数据状态&lt;/div&gt;&lt;div&gt;&lt;br&gt;&lt;/div&gt;&lt;div&gt;2.是否自动审核&lt;/div&gt;&lt;div&gt;&lt;span&gt;&lt;/span&gt;&amp;nbsp; &amp;nbsp;如果当前变更数据没有任何审核字段变化，则为走自动审核流程&lt;/div&gt;&lt;div&gt;&lt;span&gt;	&lt;/span&gt;&lt;/div&gt;&lt;div&gt;&lt;br&gt;&lt;/div&gt;&lt;div&gt;3.审核通过&lt;/div&gt;&lt;div&gt;&lt;span&gt;&lt;/span&gt;&amp;nbsp; &amp;nbsp;更新源数据及源数据状态&lt;/div&gt;&lt;div&gt;&lt;span&gt;&lt;/span&gt;&amp;nbsp; &amp;nbsp;修改变更数据&lt;/div&gt;&lt;div&gt;&lt;span&gt;&lt;/span&gt;&amp;nbsp; &amp;nbsp;日志&lt;/div&gt;&lt;div&gt;&lt;br&gt;&lt;/div&gt;&lt;div&gt;4.审核驳回&amp;nbsp;&lt;/div&gt;&lt;div&gt;&lt;span&gt;&lt;/span&gt;&amp;nbsp; &amp;nbsp;更新源数据状态&lt;/div&gt;&lt;div&gt;&lt;span&gt;&lt;/span&gt;&amp;nbsp; &amp;nbsp;修改变更数据&lt;/div&gt;&lt;div&gt;&lt;span&gt;&lt;/span&gt;&amp;nbsp; &amp;nbsp;日志&lt;/div&gt;&lt;div&gt;&lt;br&gt;&lt;/div&gt;&lt;div&gt;5.是否新增审核&lt;/div&gt;&lt;div&gt;&lt;span&gt;&lt;/span&gt;&amp;nbsp; &amp;nbsp;审核时可以进行编辑&lt;/div&gt;&lt;div&gt;&amp;nbsp; &amp;nbsp;日志&lt;/div&gt;&lt;div&gt;&lt;br&gt;&lt;/div&gt;" style="text;html=1;align=left;verticalAlign=middle;resizable=0;points=[];autosize=1;strokeColor=#36393d;fillColor=#f9f7ed;" vertex="1" parent="1">
          <mxGeometry x="-173.75" y="110" width="360" height="340" as="geometry" />
        </mxCell>
      </root>
    </mxGraphModel>
  </diagram>
</mxfile>
